<svg xmlns="http://www.w3.org/2000/svg" enable-background="new 0 0 128 128" viewBox="0 0 128 128" id="location">
  <path d="M23.536,113.686c10.827,10.141,24.855,14.85,37.972,14.266c28.171-0.932,51.893-24.112,51.212-54.731c-0.222-6.84-1.767-13.33-4.335-19.255c5.975-8.69,12.869-20.994,12.869-31.526C121.253,10.066,111.187,0,98.814,0c-12.38,0-22.452,10.066-22.452,22.439c0,0.749,0.047,1.509,0.114,2.274c-5.803-1.944-12.039-2.915-18.487-2.705C28.776,22.969,5.803,47.528,6.777,76.74C7.243,90.886,13.19,104.019,23.536,113.686z M98.814,2.667c10.903,0,19.773,8.87,19.773,19.773c0,14.974-15.626,34.748-19.773,39.73c-4.15-4.981-19.786-24.747-19.786-39.73C79.028,11.537,87.904,2.667,98.814,2.667z M76.867,27.65c3.166,17.168,20.153,36.563,20.948,37.462c0.253,0.286,0.617,0.451,0.999,0.451c0.383,0,0.746-0.164,1-0.451c0.316-0.358,3.205-3.661,6.762-8.581c2.066,5.221,3.283,10.866,3.477,16.783c0.195,5.88-0.642,11.558-2.33,16.87c-9.419,2.106-18.979-2.972-22.482-12.057c-3.774-9.897-6.099-20.772-17.639-23.413c-3.05-0.561-6.177-0.097-9.04-0.173c-3.4-0.107-6.386-2.627-7.106-6.026c-2.01-9.426,4.105-16.885,18.674-22.787C72.435,26.214,74.685,26.858,76.867,27.65z M58.082,24.662c2.305-0.055,4.332-0.031,7.241,0.292c-13.006,6.195-18.569,14.288-16.467,24.121c0.973,4.653,4.933,8,9.626,8.133c2.882,0.069,6.076-0.363,8.573,0.12c9.999,2.294,12.055,12.251,15.706,21.759c3.36,8.76,11.693,14.24,20.679,14.24c1.089,0,2.187-0.117,3.289-0.287c-6.66,17.256-22.594,30.036-41.849,31.998c1.505-4.076,1.859-8.522,1.004-13.265c-0.442-2.292-4.407-6.827-2.303-9.662c5.131-2.856,6.514-3.999,6.687-5.484c0.271-2.347-2.81-2.825-4.082-6.179c1.575-0.381,4.761,0.978,6.454-0.44c0.374-0.314,0.831-0.897,0.885-1.894c0.223-3.972-6.398-8.672-12.661-10.748c-5.799-1.922-10.287-1.268-12.317,1.802c-1.802,2.752,0.101,5.475,0.264,7.289c-0.277,2.459-2.053,3.153-3.505,3.299c-2.74,0.275-5.914-0.865-7.626-4.504c-2.684-5.824,4.179-10.498,5.206-12.024c1.779-2.61,1.796-5.185,0.043-6.886c-2.008-1.952-5.612-1.922-8.429,0.051c-14.122,6.173-19.91,3.529-24.354-0.048C14.144,43.348,33.854,25.465,58.082,24.662z M9.719,69.376c4.82,3.46,11.691,5.676,25.978-0.599c0.143-0.063,3.474-2.368,5.374-0.525c1.023,0.994,0.176,2.613-0.318,3.366c-3.4,3.323-8.403,8.301-5.532,14.666c1.323,4.159,6.403,6.526,10.353,6.123c3.86-0.389,6.06-3.411,5.907-6.008c-0.128-2.265-1.69-4.262-0.706-5.767c1.292-1.953,4.749-2.228,9.251-0.737c5.969,1.979,10.948,6.09,10.838,8.068c0,0-0.001,0.005-0.003,0.012c-0.86,0.202-3.563-0.545-5.284-0.124c-1.684,0.381-2.604,2.224-1.892,3.808c1.228,2.707,3.124,3.917,3.849,4.728c-0.953,1.149-5.488,3.39-5.854,3.829c-3.46,4.117,0.379,8.905,1.599,12.143c0.822,4.667,0.373,9-1.334,12.895c-13.927,0.605-26.829-4.383-36.584-13.515c-9.826-9.186-15.48-21.653-15.933-35.092C9.348,74.183,9.454,71.757,9.719,69.376z M112.27,22.443c0-7.422-6.038-13.459-13.459-13.459c-7.426,0-13.467,6.038-13.467,13.459c0,7.426,6.041,13.466,13.467,13.466C106.233,35.909,112.27,29.868,112.27,22.443z M98.811,33.242c-5.956,0-10.8-4.845-10.8-10.8c0-5.951,4.845-10.793,10.8-10.793c5.952,0,10.793,4.842,10.793,10.793C109.604,28.397,104.763,33.242,98.811,33.242z"></path>
</svg>
